<svg xmlns="http://www.w3.org/2000/svg" viewBox="0 0 64 64">
  <defs>
    <radialGradient id="peel" cx="30%" cy="24%" r="70%">
      <stop offset="0%" stop-color="#ffd08a"/>
      <stop offset="52%" stop-color="#ff9f2f"/>
      <stop offset="100%" stop-color="#f06b0f"/>
    </radialGradient>
    <linearGradient id="leaf" x1="0%" y1="100%" x2="100%" y2="0%">
      <stop offset="0%" stop-color="#2b7d2f"/>
      <stop offset="100%" stop-color="#75c86f"/>
    </linearGradient>
  </defs>
  <rect width="64" height="64" rx="16" fill="#1a130f"/>
  <g transform="translate(0 1)">
    <path d="M36 12c0-3 2-5 5-5 3 0 5 2 5 5 0 2-1 4-3 5l-6 3c-1 0-2-1-1-2z" fill="url(#leaf)"/>
    <path d="M32 16c-12 0-22 10-22 22s10 22 22 22 22-10 22-22-10-22-22-22z" fill="url(#peel)"/>
    <path d="M44 26c-2-3-6-5-10-5-7 0-12 5-12 12 0 5 3 9 7 11-2-2-3-5-3-8 0-7 5-12 12-12 2 0 4 1 6 2z" fill="#ffe3bc" opacity=".6"/>
    <circle cx="31" cy="39" r="3.2" fill="#fff3de" opacity=".95"/>
    <circle cx="23" cy="44" r="2.1" fill="#fff3de" opacity=".85"/>
    <circle cx="39.5" cy="46" r="2.4" fill="#fff3de" opacity=".8"/>
  </g>
</svg>
