<svg xmlns="http://www.w3.org/2000/svg" viewBox="0 0 200 200" width="200" height="200">
  <rect width="200" height="200" fill="#ffffff"/>
  <defs>
    <radialGradient id="peel" cx="38%" cy="35%" r="65%">
      <stop offset="0%" stop-color="#ffb347"/>
      <stop offset="55%" stop-color="#f7931e"/>
      <stop offset="100%" stop-color="#d35400"/>
    </radialGradient>
    <linearGradient id="leaf" x1="0%" y1="0%" x2="100%" y2="100%">
      <stop offset="0%" stop-color="#7cb342"/>
      <stop offset="100%" stop-color="#33691e"/>
    </linearGradient>
    <filter id="soft" x="-20%" y="-20%" width="140%" height="140%">
      <feGaussianBlur in="SourceAlpha" stdDeviation="1.2" result="b"/>
      <feOffset dx="0" dy="1" in="b" result="o"/>
      <feMerge>
        <feMergeNode in="o"/>
        <feMergeNode in="SourceGraphic"/>
      </feMerge>
    </filter>
  </defs>
  <g filter="url(#soft)">
    <ellipse cx="104" cy="118" rx="72" ry="68" fill="url(#peel)"/>
    <g fill="none" stroke="#c65d00" stroke-width="0.8" stroke-opacity="0.35">
      <path d="M100 52 Q92 110 100 168"/>
      <path d="M100 52 Q108 110 100 168"/>
      <path d="M52 108 Q100 98 148 108"/>
      <path d="M46 128 Q100 140 154 128"/>
    </g>
    <ellipse cx="100" cy="118" rx="72" ry="68" fill="none" stroke="#e65100" stroke-width="1.2" stroke-opacity="0.25"/>
  </g>
  <ellipse cx="95" cy="62" rx="10" ry="6" fill="#6d4c41" transform="rotate(-18 95 62)"/>
  <path d="M96 58 Q88 38 76 32 Q82 44 90 56 Z" fill="url(#leaf)"/>
  <path d="M96 58 Q100 42 108 38 Q102 50 94 56 Z" fill="#558b2f" opacity="0.9"/>
</svg>
